<?xml version="1.0" standalone="no"?>
<!DOCTYPE svg PUBLIC "-//W3C//DTD SVG 20010904//EN"
 "http://www.w3.org/TR/2001/REC-SVG-20010904/DTD/svg10.dtd">
<svg version="1.0" xmlns="http://www.w3.org/2000/svg"
 width="110.685514pt" height="112.083928pt" viewBox="0 0 110.685514 112.083928"
 preserveAspectRatio="xMidYMid meet">
<metadata>
Created by potrace 1.12, written by Peter Selinger 2001-2015
</metadata>
<g transform="translate(-74.181807,164.000000) scale(0.100000,-0.100000)"
fill="#000000" stroke="none">
<path d="M1196 1590 c-66 -70 -90 -128 -90 -215 -1 -90 34 -166 102 -226 44
-38 47 -40 50 -19 2 12 -1 60 -8 107 -6 47 -9 87 -7 89 5 5 67 -187 67 -206 0
-21 29 9 51 51 35 69 27 128 -37 262 -31 65 -59 138 -62 162 -2 25 -8 45 -12
45 -4 0 -28 -23 -54 -50z"/>
<path d="M1442 1566 c-38 -44 -49 -94 -31 -143 18 -48 33 -51 68 -15 42 42 58
101 40 149 -19 50 -39 52 -77 9z"/>
<path d="M1640 1498 c-1 -43 -47 -136 -122 -244 -116 -168 -132 -205 -133
-294 0 -61 5 -86 28 -134 17 -36 31 -56 37 -50 17 17 80 145 80 164 0 9 -7 34
-15 53 -15 36 -14 37 38 139 49 95 77 130 77 94 0 -8 -18 -56 -40 -106 -43
-97 -47 -114 -28 -108 7 3 32 47 55 99 23 52 49 95 58 97 22 5 19 -7 -25 -108
-43 -97 -46 -110 -29 -110 5 0 31 44 55 97 52 112 51 110 64 97 7 -7 -3 -45
-29 -115 -38 -102 -39 -105 -89 -132 -45 -24 -53 -34 -76 -92 -25 -63 -32 -95
-21 -95 19 0 109 55 150 93 182 164 192 433 24 630 -45 52 -59 58 -59 25z"/>
<path d="M909 1453 c-23 -62 31 -156 97 -169 28 -5 32 -3 37 24 12 61 -18 124
-73 152 -49 25 -48 25 -61 -7z"/>
<path d="M755 1213 c-3 -10 -9 -54 -12 -98 -11 -155 53 -322 167 -435 193
-189 498 -215 718 -60 86 60 143 129 189 227 41 89 42 111 2 50 -43 -65 -141
-153 -210 -187 -84 -43 -160 -60 -264 -60 -110 0 -192 20 -265 64 -34 21 -73
35 -103 39 -143 15 -205 238 -73 262 35 7 97 -13 129 -43 32 -29 57 -89 57
-136 0 -36 5 -48 26 -65 39 -30 126 -69 171 -77 l40 -6 -8 60 c-30 220 -200
409 -419 467 -77 21 -136 20 -145 -2z"/>
<path d="M866 888 c11 -37 43 -77 74 -93 45 -23 47 -18 3 14 -22 16 -47 45
-57 65 -19 40 -31 48 -20 14z"/>
</g>
</svg>
